<svg width="84" height="118" viewBox="0 0 84 118" fill="none" xmlns="http://www.w3.org/2000/svg">
<path d="M79.5758 7.60106C81.3292 7.60106 82.75 6.17895 82.75 4.42553C82.75 2.67211 81.3292 1.25 79.5758 1.25C77.8223 1.25 76.4015 2.67211 76.4015 4.42553C76.4015 6.17895 77.8223 7.60106 79.5758 7.60106ZM79.5758 43.984C81.3292 43.984 82.75 42.5619 82.75 40.8085C82.75 39.0551 81.3292 37.633 79.5758 37.633C77.8223 37.633 76.4015 39.0551 76.4015 40.8085C76.4015 42.5619 77.8223 43.984 79.5758 43.984ZM79.5758 80.367C81.3292 80.367 82.75 78.9449 82.75 77.1915C82.75 75.4381 81.3292 74.016 79.5758 74.016C77.8223 74.016 76.4015 75.4381 76.4015 77.1915C76.4015 78.9449 77.8223 80.367 79.5758 80.367ZM79.5758 116.75C81.3292 116.75 82.75 115.328 82.75 113.574C82.75 111.821 81.3292 110.399 79.5758 110.399C77.8223 110.399 76.4015 111.821 76.4015 113.574C76.4015 115.328 77.8223 116.75 79.5758 116.75ZM4.42424 7.60106C6.1777 7.60106 7.59848 6.17895 7.59848 4.42553C7.59848 2.67211 6.1777 1.25 4.42424 1.25C2.67078 1.25 1.25 2.67211 1.25 4.42553C1.25 6.17895 2.67078 7.60106 4.42424 7.60106ZM4.42424 43.984C6.1777 43.984 7.59848 42.5619 7.59848 40.8085C7.59848 39.0551 6.1777 37.633 4.42424 37.633C2.67078 37.633 1.25 39.0551 1.25 40.8085C1.25 42.5619 2.67078 43.984 4.42424 43.984ZM4.42424 80.367C6.1777 80.367 7.59848 78.9449 7.59848 77.1915C7.59848 75.4381 6.17771 74.016 4.42424 74.016C2.67078 74.016 1.25 75.4381 1.25 77.1915C1.25 78.9449 2.67078 80.367 4.42424 80.367ZM4.42424 116.75C6.17771 116.75 7.59848 115.328 7.59848 113.574C7.59848 111.821 6.1777 110.399 4.42424 110.399C2.67078 110.399 1.25 111.821 1.25 113.574C1.25 115.328 2.67078 116.75 4.42424 116.75ZM42 7.60106C43.7535 7.60106 45.1742 6.17895 45.1742 4.42553C45.1742 2.67211 43.7535 1.25 42 1.25C40.2465 1.25 38.8258 2.67211 38.8258 4.42553C38.8258 6.17895 40.2465 7.60106 42 7.60106ZM42 43.984C43.7535 43.984 45.1742 42.5619 45.1742 40.8085C45.1742 39.0551 43.7535 37.633 42 37.633C40.2465 37.633 38.8258 39.0551 38.8258 40.8085C38.8258 42.5619 40.2465 43.984 42 43.984ZM42 80.367C43.7535 80.367 45.1742 78.9449 45.1742 77.1915C45.1742 75.4381 43.7535 74.016 42 74.016C40.2465 74.016 38.8258 75.4381 38.8258 77.1915C38.8258 78.9449 40.2465 80.367 42 80.367ZM42 116.75C43.7535 116.75 45.1742 115.328 45.1742 113.574C45.1742 111.821 43.7535 110.399 42 110.399C40.2465 110.399 38.8258 111.821 38.8258 113.574C38.8258 115.328 40.2465 116.75 42 116.75Z" fill="white" stroke="white" stroke-width="1.5"/>
</svg>
