<svg width="79" height="38" viewBox="0 0 79 38" fill="none" xmlns="http://www.w3.org/2000/svg">
<path d="M1.61719 5.44573C3.40671 7.40555 7.28317 11.0424 12.547 11.2025C17.755 11.3602 21.6551 8.0313 23.4767 6.19662C25.1615 4.47458 28.7321 1.38593 33.5058 1.44099C38.136 1.49606 41.5984 4.47959 43.2781 6.19662C44.5962 7.8661 48.4202 12.2338 53.6942 11.7031C57.9153 11.2776 60.952 7.92617 62.3089 6.19662C63.1808 4.92762 66.0282 1.1106 70.153 1.19069C74.1207 1.26829 76.8515 4.90259 77.7404 6.19662" stroke="white" stroke-width="2" stroke-miterlimit="10"/>
<path d="M1.74219 17.9184C3.53171 19.8782 7.40817 23.515 12.672 23.6752C17.88 23.8329 21.7801 20.504 23.6017 18.6693C25.2865 16.9472 28.8571 13.8586 33.6308 13.9136C38.261 13.9687 41.7234 16.9522 43.4031 18.6693C44.7212 20.3388 48.5452 24.7064 53.8192 24.1758C58.0403 23.7503 61.077 20.3988 62.4339 18.6693C63.3058 17.4003 66.1532 13.5833 70.278 13.6634C74.2457 13.7409 76.9765 17.3752 77.8653 18.6693" stroke="white" stroke-width="2" stroke-miterlimit="10"/>
<path d="M1.875 30.3871C3.66452 32.347 7.54098 35.9838 12.8048 36.144C18.0128 36.3016 21.9129 32.9727 23.7346 31.138C25.4193 29.416 28.9899 26.3273 33.7637 26.3824C38.3938 26.4375 41.8562 29.421 43.5359 31.138C44.854 32.8075 48.678 37.1752 53.952 36.6445C58.1732 36.219 61.2098 32.8676 62.5667 31.138C63.4386 29.869 66.286 26.052 70.4109 26.1321C74.3786 26.2097 77.1093 29.844 77.9982 31.138" stroke="white" stroke-width="2" stroke-miterlimit="10"/>
</svg>
