<svg width="12" height="19" viewBox="0 0 12 19" fill="none" xmlns="http://www.w3.org/2000/svg">
<path d="M10.8626 1.23914C10.7217 1.0679 10.5502 0.929001 10.3582 0.830774C10.1662 0.732546 9.9578 0.677009 9.7454 0.667489C9.53299 0.657969 9.32099 0.694662 9.12209 0.77537C8.92318 0.856078 8.74146 0.979141 8.58782 1.13719L0.86296 8.41012C0.694867 8.56958 0.560242 8.76569 0.468029 8.98543C0.375815 9.20517 0.328125 9.44349 0.328125 9.68458C0.328125 9.92567 0.375815 10.164 0.468029 10.3837C0.560242 10.6035 0.694867 10.7996 0.86296 10.959L8.58782 18.13C8.87581 18.4032 9.24646 18.5542 9.63044 18.5548C9.8574 18.557 10.0821 18.5065 10.2893 18.4068C10.4965 18.3071 10.6812 18.1605 10.831 17.9771C11.1053 17.6367 11.2427 17.1932 11.2131 16.7439C11.1834 16.2946 10.9892 15.8764 10.6731 15.5811L4.35416 9.58262L10.6731 3.58415C10.98 3.2952 11.1711 2.88976 11.2064 2.45267C11.2418 2.01559 11.1186 1.58074 10.8626 1.23914Z" fill="#545454"/>
</svg>
