<svg width="12" height="19" viewBox="0 0 12 19" fill="none" xmlns="http://www.w3.org/2000/svg">
<path d="M0.684244 17.9816C0.82513 18.1528 0.996697 18.2917 1.18867 18.3899C1.38065 18.4882 1.58908 18.5437 1.80148 18.5532C2.01388 18.5627 2.22588 18.526 2.42479 18.4453C2.62369 18.3646 2.80541 18.2416 2.95905 18.0835L10.6839 10.8106C10.852 10.6511 10.9866 10.455 11.0788 10.2353C11.1711 10.0155 11.2188 9.77721 11.2188 9.53612C11.2188 9.29504 11.1711 9.05671 11.0788 8.83697C10.9866 8.61724 10.852 8.42112 10.6839 8.26166L2.95905 1.09069C2.67106 0.817478 2.30042 0.666459 1.91643 0.665864C1.68948 0.66374 1.46476 0.714245 1.25758 0.813945C1.0504 0.913644 0.865629 1.0602 0.715841 1.24362C0.441606 1.58397 0.304202 2.02751 0.333823 2.47678C0.363444 2.92605 0.557668 3.3443 0.873814 3.63961L7.19272 9.63808L0.873813 15.6365C0.566899 15.9255 0.375775 16.3309 0.340441 16.768C0.305108 17.2051 0.428303 17.64 0.684244 17.9816Z" fill="#545454"/>
</svg>
